# xmcd CD database file
#
# Track frame offsets:
#	150
#	15383
#	32038
#	47828
#	63083
#	76680
#	94063
#	107028
#	121878
#	135000
#	151548
#	164183
#	175693
#	190510
#	205733
#	220018
#
# Disc length: 3133 seconds
#
# Revision: 2
# Processed by: cddbd v1.4b41PL1 Copyright (c) Steve Scherf et al.
# Submitted via: Feurio! 1.50.2ß - http://www.feurio.com
#
DISCID=b80c3b10
DTITLE=Stefanie Hertel - Mein Liederkarussel
DYEAR=1900
DGENRE=
TTITLE0=Tausend kleine Himmel
TTITLE1=Nicht jeder kann ein Mozart sein
TTITLE2=Singen macht die Herzen froh
TTITLE3=der kleine Prinz vom anderen Stern
TTITLE4=So a stückerl heile Welt
TTITLE5=Hab mich lieb
TTITLE6=Mehr Zeit für uns beide
TTITLE7=Papa , die Oma hat erzählt
TTITLE8=Über jedes Bacherl geht a Brückerl
TTITLE9=Die alte Birke darf nicht Sterben
TTITLE10=Für Opa ist immer ein Zimmer frei
TTITLE11=mit dem Sonnenschein im Herzen
TTITLE12=Als noch das Sandmänchen kam
TTITLE13=Wenn ich den ersten Walzer tanz
TTITLE14=Jeder braucht sein Kuscheltier
TTITLE15=Das Glück fällt leise vom Himmel
EXTD=
EXTT0=
EXTT1=
EXTT2=
EXTT3=
EXTT4=
EXTT5=
EXTT6=
EXTT7=
EXTT8=
EXTT9=
EXTT10=
EXTT11=
EXTT12=
EXTT13=
EXTT14=
EXTT15=
PLAYORDER=
